# xmcd CD database file
#
# Track frame offsets:
#	150
#	6126
#	37332
#	64423
#	106696
#	138294
#	168490
#	200380
#
# Disc length: 3214 seconds
#
# Revision: 0
# Processed by: cddbd v1.5.2PL0 Copyright (c) Steve Scherf et al.
# Submitted via: CDex 1.51
#
DISCID=6b0c8c08
DTITLE=The Sabbathian - Latum Alterum
DYEAR=2019
DGENRE=Doom Metal
TTITLE0=Requiem...
TTITLE1=The Brightest Light
TTITLE2=Liti Kjersti
TTITLE3=Head Of A Traitor
TTITLE4=One Night Of Cruelty
TTITLE5=Embrace The Dark
TTITLE6=Evig Hvile/Libera Me...
TTITLE7=This Secret Obscure
EXTD=YEAR: 2019
EXTT0=
EXTT1=
EXTT2=
EXTT3=
EXTT4=
EXTT5=
EXTT6=
EXTT7=
PLAYORDER=
